<mxfile host="app.diagrams.net" modified="2024-04-26T08:31:16.664Z" agent="Mozilla/5.0 (Windows NT 10.0; Win64; x64) AppleWebKit/537.36 (KHTML, like Gecko) Chrome/124.0.0.0 Safari/537.36 Edg/124.0.0.0" version="24.2.5" etag="t74bttIvNIuWoORfVqYR" type="github">
  <diagram name="第 1 页" id="rrujsx1Q11fEwT99_Br-">
    <mxGraphModel>
      <root>
        <mxCell id="0" />
        <mxCell id="1" parent="0" />
      </root>
    </mxGraphModel>
  </diagram>
</mxfile>
